<svg xmlns="http://www.w3.org/2000/svg" width="1920" height="1080" viewBox="0 0 1919.9999 1080">
  <path d="M725.146 430.894l-17.628 96.21-57.165-39.462 39.46 57.165-96.207 17.628 96.208 17.628-39.46 57.165 55.735-38.475 19.056 231.544 19.057-231.544 55.736 38.475-39.462-57.165 96.207-17.628-96.207-17.628 39.46-57.165-57.165 39.46-17.627-96.208z" fill="#fc0"/>
  <path d="M0 857.75s392.026 0 611.19 95.69c219.164 95.692 1012.476 55.563 1308.81-37.04V1080H.772z" fill="#190e4a" fill-rule="evenodd"/>
  <path d="M567.915 625.905c-1.267-.043-2.538.29-4.412.927-1.978.673-4.505 1.788-5.615 2.478-1.11.69-2.097 1.255-2.193 1.255-.448 0-5.415 3.385-9.18 6.257-5.21 3.972-11.596 8.41-13.802 9.588-.92.49-2.045 1.126-2.5 1.41-.454.286-1.83 1.136-3.057 1.89-1.227.754-3.825 2.66-5.77 4.234-2.146 1.735-5.553 3.89-8.646 5.465-2.808 1.43-6.604 3.657-8.435 4.947-5.47 3.856-15.72 10.163-18.853 11.6-1.61.74-3.962 1.582-5.227 1.873-7.39 1.694-13.664 5.358-20.493 11.97-3.24 3.138-7.782 5.79-11.733 6.85-2.816.755-5.372 1.66-7.71 2.73-1.16.53-3.082 1.347-4.268 1.815-2.862 1.128-13.528 6.463-16.492 8.25-1.677 1.01-2.9 2.21-4.256 4.174-2.126 3.08-3.685 4.414-6.8 5.825-2.047.927-9.913 2.99-18.44 4.838-3.872.84-6.053 1.505-8.51 2.6-.576.256-3.4 1.998-6.274 3.872-5.682 3.7-10.726 5.71-19.868 7.913-5.144 1.24-6.642 1.928-10.32 4.746-4.964 3.806-13.09 9.07-14.77 9.572-.92.274-3.368.963-5.438 1.53-5.536 1.518-7.145 2.363-11.12 5.832-1.974 1.724-5.218 4.016-7.21 5.092-2.7 1.46-4.203 2.622-5.923 4.58-1.266 1.445-2.303 3.027-2.303 3.517 0 .49.756 2.88 1.68 5.31 1.496 3.933 1.725 5.03 2.072 9.937.214 3.034.584 6.642.82 8.018.525 3.035 3.054 8.382 4.275 9.035 3.37 1.803 6.476.885 12.976-3.83 1.538-1.116 3.425-2.366 4.196-2.78.77-.41 1.842-1.16 2.382-1.664 1.522-1.418 5.325-3.053 7.103-3.053.96 0 2.024.33 2.644.816.967.76 1.053 1.144 1.292 5.75.14 2.714.773 8.793 1.405 13.51.938 6.982 1.156 10.202 1.17 17.355.02 10.02.106 9.567-5.39 28.57-3.103 10.722-3.68 13.516-5.032 24.337-.37 2.975-1.068 6.086-1.827 8.156-1.855 5.06-1.894 5.877-.707 15.07.593 4.592 1.262 9.95 1.486 11.904.223 1.956.69 5.626 1.036 8.156.885 6.467 1.166 10.676.64 9.62-.313-.634-.352-.43-.16.836.14.92.4 1.86.58 2.09.382.49.86 2.9.87 4.39.014 1.928.863 10.66 1.1 11.293.127.345.198.916.157 1.268-.04.352.224 2.14.59 3.974.5 2.512.71 6.89.853 17.762.217 16.46.776 26.455 1.65 29.485 1.374 4.76 2.29 9.462 2.29 11.75 0 2.374 1.773 13.746 2.542 16.302.53 1.766.48 7.97-.08 10.007-.254.92-1.412 3.742-2.573 6.272-1.788 3.898-2.14 5.08-2.3 7.738-.407 6.806 1.82 12.476 6.858 17.46l1.638 1.62h192.223c.012-.337-.343-.752-.53-1.27-.292-.807-1.01-1.985-1.596-2.617-1.078-1.162-2.897-4.68-3.2-6.185-.52-2.595-.35-3.703.673-4.355.567-.36 1.746-1.357 2.622-2.21 1.705-1.666 2.34-1.4 1.562.65-.24.628-.434 1.76-.434 2.517 0 .756-.21 1.976-.468 2.713-.256.736-.397 1.405-.313 1.485.083.08 1.28-.41 2.66-1.09 1.637-.804 2.92-1.81 3.688-2.885 2.056-2.884 2.796-2.15 2.796 2.774 0 1.707.106 3.103.237 3.103.13 0 .598-.194 1.04-.43.44-.236 1.7-.597 2.796-.802 1.718-.32 2.094-.263 2.74.43.41.44.93.8 1.15.8.832 0 .352 1.14-1.052 2.502-.8.775-2.223 2.507-3.163 3.847l-.718 1.023h67.944c.132-.144.06-.26-.172-.26-.24 0-.683-.612-.984-1.36-.3-.747-1.268-2.514-2.15-3.925-1.785-2.86-1.75-3.697.247-5.553.88-.82 1.264-.933 2.03-.598.89.388 1.337.412 4.187.22 1.407-.093 1.522-1.09.28-2.413-.48-.51-.81-1.324-.733-1.81.14-.88.15-.88 1.604.15 1.59 1.128 4.476 1.742 5.368 1.143.446-.3.298-.89-.732-2.93-1.793-3.553-1.688-4.838.25-3.033.472.44 1.808 1.282 2.967 1.87 1.16.587 2.186 1.304 2.282 1.594.096.29-.343 1.51-.975 2.71-1.178 2.24-2.03 6.708-1.372 7.186.202.147.367 1.728.367 3.514-.003.874-.006 2.103-.035 3.496h183.01v-2.757c0-2.297-.186-6.957-.412-10.354-.226-3.4-.504-8.156-.617-10.57-.265-5.625-.257-5.534-.517-6.273-.123-.345-.293-1.843-.38-3.327-.085-1.484-.463-3.62-.837-4.747-1.435-4.322-1.768-6.833-1.805-13.65-.033-6.116.398-13.67.992-17.38 2.228-13.926 2.892-23.92 2.64-39.733-.188-11.844.02-19.434.717-26.378.117-1.168.495-5.866.84-10.442.545-7.23 1.413-15.05 2.132-19.222.118-.69.4-3.513.627-6.273.226-2.76.8-7.907 1.274-11.436.537-3.99.756-7.155.58-8.365-.233-1.597-2.07-7.943-3.05-10.522-.27-.718-.527-1.564-3.165-10.455-3.632-12.24-5.247-17.365-6.99-22.166-2.86-7.89-3.446-11.29-3.166-18.403.13-3.336.34-6.63.468-7.32.326-1.778.588-7.73.818-18.61.316-14.953.26-14.785 4.344-13.136 1.45.586 3.53 1.592 4.622 2.235 1.09.643 2.724 1.517 3.63 1.943.903.425 2.96 1.548 4.57 2.495 4.076 2.397 8.21 3.97 10.708 4.074 2.47.102 2.86-.26 3.837-3.575.356-1.206 1.322-4.424 2.147-7.15 1.175-3.88 1.502-5.675 1.502-8.247 0-1.807.266-4.093.59-5.08 1.97-5.968 2.302-10.29.934-12.11-.29-.387-1.56-1.16-2.825-1.72-1.264-.56-3.418-1.76-4.786-2.668-1.37-.908-3.71-2.457-5.207-3.44-1.495-.986-6.2-3.497-10.455-5.582-4.404-2.157-9.9-5.255-12.756-7.19-6.402-4.336-10.018-6.083-16.52-7.982-10.216-2.985-11.092-3.263-11.92-3.78-.46-.287-2.812-1.222-5.227-2.078-4.94-1.75-6.01-2.253-8.99-4.216-1.312-.865-3.653-1.79-6.276-2.484-2.3-.607-5.79-1.637-7.753-2.29-1.964-.65-5.164-1.587-7.11-2.08-8.997-2.278-11.52-5.248-16.295-7.33-7.047-3.072-15.85-8.067-21.73-10.986-10.217-5.07-16.82-8.538-31.627-14.953-10.79-4.744-25.29-12.044-34.758-18.69-10.05-7.056-19.36-15.114-32.715-24.027-4.546-1.61-8.65-4.222-12.066-6.287-3.7-2.237-10.114-5.557-10.737-5.557-.308 0-2.04-.743-3.852-1.65-2.89-1.445-4.513-2.12-6.143-2.175zm-.496 31.427c.473 0 1.797.865 2.942 1.922 3.08 2.843 9.257 7.73 12.12 9.592 1.38.897 2.603 1.73 2.718 1.854.115.123.586.464 1.046.757l2.162 1.38c.73.468 1.845 1.53 2.478 2.36l1.15 1.51-1.013-.33c-1.33-.435-7.908-.71-17.743-.748-10.267-.04-17.068.32-20.828 1.098-3.508.727-5.767 1.035-6.357.864-.23-.066-1.502-.244-2.828-.393l-2.41-.274.867-1.103c.478-.607 1.556-1.582 2.396-2.165.84-.584 3.714-2.755 6.385-4.825 10.137-7.858 15.495-11.5 16.914-11.5zm43.09 38.6c1.467-.03 2.163.188 3.7.752 1.412.517 3.037 1.244 3.612 1.615.575.37 2.22 1.22 3.66 1.886 1.436.667 2.613 1.367 2.613 1.554 0 .188.184.342.41.342.223 0 1.682.86 3.24 1.91 1.558 1.05 5.668 3.335 9.163 5.018 5.933 2.857 3.5 1.185 9.318 4.898 1.606 1.025 4.366 2.83 8.52 5.106 3.186 1.747 5.758 2.525 8.407 3.91 3.18 1.66 8.23 5.238 9.816 6.712 2.19 2.035 4.37 4.137 4.37 4.137 1.37 3.972 6.506 11.038 9.598 14.538 5.62 6.456 6.568 8.454 11.615 15.737 2.1 2.657 2.515 3.63 2.79 6.547.247 2.643 1.774 5.167 5.44 9 3.525 3.685 6.695 7.61 7.048 8.727.167.53.72 1.34 1.23 1.8.507.46 1.676 1.872 2.596 3.14.92 1.268 2.66 3.337 3.868 4.6 1.207 1.263 3.478 4.084 5.046 6.27 2.91 4.053 6.657 7.71 10.47 10.222 2.657 1.75 9.592 8.478 12.865 12.48 6.215 7.6 11.446 17.87 12.856 25.244.34 1.763.895 4.03 1.237 5.037.36 1.06.622 3.345.622 5.426 0 1.975.267 5.31.594 7.408.934 5.984 1.66 15.693 1.77 23.68.174 12.804.57 20.635 1.16 23.004 1.823 7.305 1.94 15.74.278 20.074-1.5 3.913-2.888 10.358-3.82 17.723-.937 7.413-1.563 10.4-2.902 13.853-.446 1.15-1.082 4.12-1.414 6.6-.516 3.852-.52 4.827-.027 6.69.354 1.347.658 5.548.793 10.966.31 12.38.662 22.368.842 23.84.085.69.28 9.817.437 20.283.155 10.466.368 19.17.473 19.343 0 0-.417.297-1.7-.523-1.585-1.013-4.495-1.364-7.36-.888-1.49.248-2.4.174-3.213.02-.682-.118-.735-.097-1.95-.276-2.088-.128-3.426-.587-4.177-.978-.662-.242-.656-.388-1.14-.887-.012-.3-1.206-1.543-2.65-2.76-3.51-2.96-5.69-5.035-5.69-5.418 0-.61-4.318-2.22-6.942-2.592-4.42-.626-11.996-4.982-14.458-8.315-3.883-5.254-4.51-6.242-4.766-7.5-.153-.75-.445-1.468-.65-1.594-.58-.36-.434-2.147.23-2.81.422-.423 1.213-.54 2.695-.397 4.46.428 5.253-.745 4.033-5.98-1.042-4.473-1.922-12.943-1.62-15.597.147-1.305.822-3.878 1.5-5.718 1.044-2.833 1.195-3.73.985-5.856-.136-1.38-.35-4.58-.48-7.11-.127-2.53-.49-5.448-.804-6.483-.315-1.035-.696-3.388-.845-5.228-.98-12.12-4.855-20.1-12.5-25.753-.803-.592-3.015-2.474-4.917-4.182-6.286-5.644-7.65-6.84-11.445-10.033-4.872-4.1-6.473-5.154-12.623-8.318-4.703-2.42-5.433-2.964-9.41-7.028-10.953-11.192-12.382-11.9-20.884-10.38-11.756 2.104-18.616 6.584-22.785 14.88-.966 1.922-1.21 3.092-1.484 7.133-.18 2.658-.616 5.522-.968 6.364-.74 1.77-.8 3.91-.185 6.576.24 1.035.434 2.635.43 3.555-.014 3.88.8 4.8 4.26 4.82 4.787.027 6.965 1.598 8.484 6.122l.96 2.86 2.294.21c2.69.25 4.038 1.288 5.427 4.178 1.025 2.132 3.17 3.766 4.947 3.766.66 0 2.408-.545 3.882-1.213 4.298-1.95 5.024-2 6.554-.472 1.187 1.187 1.288 1.494 1.11 3.35-.15 1.557-.666 2.73-2.172 4.935-2.354 3.446-2.9 5.156-2.933 9.19-.014 1.668-.09 3.03-.167 3.03-.077 0-1.207-.623-2.51-1.387-1.304-.764-5.13-2.762-8.5-4.44-7.497-3.727-8.883-4.82-10.4-8.204-1.775-3.955-5.206-6.242-8.496-5.662-.193.034-1.415-.656-2.718-1.532-3.163-2.128-5.533-3.13-7.01-2.96-1.116.127-1.236.307-1.49 2.228-.382 2.875-.37 8.375.024 10.763.26 1.584.757 2.435 2.484 4.262 1.187 1.254 2.16 2.47 2.16 2.7 0 .228 1.617 1.793 3.594 3.475 1.978 1.682 3.897 3.622 4.264 4.312 1.386 2.605 2.395 25.024 1.237 27.516-.287.62-.67 1.13-.853 1.13-.182 0-1.432-.57-2.778-1.27-1.346-.702-3.108-1.382-3.915-1.513-1.337-.217-1.51-.41-1.956-2.177-1.135-4.504-3.826-11.057-5.815-14.158-1.823-2.84-5.712-7.034-8.68-9.36-1.357-1.065-6.017-3.153-9.392-4.21-2.718-.853-3.952-.975-10-.975-7.46 0-9.63.43-14.49 2.885-1.185.597-2.392 1.086-2.684 1.086-.293 0-.413.12-.267.266.145.146-1.102 1.342-2.77 2.658-5.125 4.04-7.916 7.72-10.477 13.807-1.707 4.06-2.354 5.99-2.354 7.033 0 2.473-2.63 4.362-6.717 4.822-2.64.298-4.994 1.024-4.994 1.54 0 .19.283.63.628.974.794.794.794 1.104 0 1.104-.345 0-.628.16-.628.353 0 .193-.935.86-2.078 1.482-1.143.62-2.19 1.31-2.324 1.53-.574.928-.89.194-1.397-3.26-.637-4.332-3.49-16.316-4.63-19.444-.97-2.667-1.953-13.205-2.718-29.176-.276-5.754-1.417-18.73-1.74-19.76-.384-1.238.14-.85 3.2 2.373 3.39 3.568 5.227 4.423 9.51 4.423 2.554 0 2.773-.08 4.26-1.57 2.197-2.198 2.603-4.397 2.72-14.742.115-9.99 1.125-17.893 3.418-26.766 1.6-6.19 1.776-9.256.994-17.42-.506-5.29-.518-13.314-.026-16.795.35-2.478.537-2.81 3.103-5.53 4.01-4.253 5.417-7.68 5.917-14.415.27-3.657.234-3.882-1.29-7.857-1.157-3.02-1.888-4.32-2.788-4.96-2.01-1.43-3.525-.854-7.66 2.92-1.865 1.7-3.44 2.646-5.637 3.376-2.84.945-3.724 2.098-5.46 7.11-1.89 5.463-2.655 6.54-6.04 8.528-1.38.81-4.204 3.01-6.275 4.89-5.418 4.92-8.448 7.114-9.818 7.114-1.15 0-2.464-1.03-1.958-1.537.144-.144-.003-.468-.328-.72-.43-.334-.663-1.956-.852-5.897-.355-7.406-.55-9.606-1.12-12.61-.425-2.228-.393-2.77.228-4.078 1.498-3.157 6.133-4.045 10.223-1.96.94.48 2.174.874 2.74.874 1.264 0 3.402-1.74 4.305-3.502.37-.72.785-1.403.925-1.518.14-.115.91-1.62 1.706-3.346 1.968-4.258 1.9-4.192 3.92-3.927 2.732.36 3.34-.354 3.474-4.072.06-1.696.227-3.932.37-4.967.14-1.035.31-2.48.373-3.21.144-1.67 1.197-3.92 2.303-4.92.466-.422 2.11-1.177 3.654-1.678 3.692-1.197 4.628-2.35 3.977-4.903-.287-1.133-.31-1.86-.058-1.948.22-.078.402-.548.402-1.047 0-.498.57-2.11 1.267-3.583l1.268-2.677-.774-1.505c-7.87-15.3-8.145-15.722-11.986-18.354-3.862-2.646-5.815-3.337-10.9-3.852-2.527-.256-5.347-.636-6.268-.844-3.004-.68-8.05-.208-12.887 1.205-5.243 1.532-7.153 2.422-10.317 4.81-4.544 3.427-5.82 5.552-5.845 9.734-.016 2.912-.06 3.038-1.806 5.02-.984 1.116-2.82 3.32-4.078 4.898-1.384 1.734-3.94 4.11-6.47 6.017-5.136 3.87-7.898 6.488-9.152 8.68-.526.92-2.304 3.974-3.95 6.785-2.535 4.325-3.416 6.392-5.732 13.45-2.93 8.93-6.648 17.01-11.614 25.247-1.49 2.473-3.013 5.253-3.383 6.178-.776 1.94-.86 4.767-.236 7.986.24 1.24.525 3.005.636 3.926.11.92.3 2.46.422 3.42.38 3.007.228 14.977-.248 19.654-.25 2.46-.902 6.744-1.45 9.52-1.713 8.704-2.275 12.5-2.72 18.376-.483 6.354-.863 8.058-3.27 14.69l-1.672 4.602-.214 15.265c-.118 8.397-.052 18.09.146 21.54.198 3.45.488 9.38.643 13.174.156 3.795.35 7.653.43 8.573l.544 6.216c.22 2.498.532 7.508.694 11.133l.297 6.592-1.34 4.132c-.736 2.272-1.56 4.417-1.833 4.766-.27.35-2.88 1.828-5.798 3.286-4.546 2.27-5.47 2.594-6.46 2.264-.752-.25-2.48-.197-4.942.15-2.39.34-8.518.54-16.607.55l-12.82.015-.198-7.84c-.292-11.6-.012-24.106.69-30.845.942-9.03 1.158-11.787 1.54-19.646.615-12.703.322-15.324-3.195-28.6-.57-2.152-1.504-6.446-2.076-9.543-.577-3.117-1.672-7.25-2.455-9.26-2.345-6.017-2.96-10.025-2.902-18.897.028-4.256.265-9.713.526-12.128.26-2.415.655-8.156.88-12.757.222-4.6.5-9.87.615-11.71.115-1.84.304-10.31.422-18.82s.3-16.227.402-17.147c.102-.92.887-3.18 1.743-5.02.856-1.84 2.146-5.04 2.867-7.11 1.467-4.21 2.584-6.14 5.323-9.2 1.03-1.15 2.567-3.006 3.416-4.125 7.07-9.326 10.53-13.277 14.563-16.638 6.695-5.58 10.184-9.315 13.62-14.577 1.727-2.645 3.4-5.185 3.716-5.645.316-.46 1.022-1.506 1.57-2.324.546-.818 1.876-2.324 2.954-3.346 4.93-4.68 9.184-11.123 13.19-19.985 1.318-2.914 3.176-6.614 4.13-8.225 3.282-5.536 5.958-11.3 7.667-16.518 2.29-6.993 2.958-7.636 11.665-11.242 3.543-1.467 8.626-3.665 11.295-4.884 2.67-1.218 6.506-2.748 8.527-3.397 2.52-.81 4.196-1.642 5.338-2.65 1.582-1.4 1.674-1.615 1.874-4.414.218-3.062.55-3.804 2.088-4.67 2.68-1.51 9.033-4.712 9.35-4.712.963 0 7.73-3.6 11.465-6.1 5.443-3.644 8.706-5.155 12.207-5.65 1.565-.223 9.81-.484 18.32-.58 8.513-.097 18.49-.295 22.17-.44 3.68-.145 13.09-.32 20.91-.39s16.454-.35 19.183-.625c1.787-.18 2.945-.29 3.826-.31zm108.146 56.902c.795-.09 1.904.406 3.304 1.483 2.56 1.972 4.706 3.032 7.726 3.82 3.805.99 9.318 3.01 11.83 4.334 1.09.575 2.99 1.347 4.222 1.718 2.784.837 5.02 2.294 6.616 4.307 1.837 2.32 2.63 4.88 3.483 11.26.276 2.07.952 4.526 1.693 6.162 1.26 2.777 1.584 5.484.827 6.9-.223.417-.647.838-.94.936-1.6.53-6.385-1.14-8.43-2.943-.43-.38-1.72-2.077-2.866-3.77-1.145-1.693-3.05-4.233-4.233-5.646-1.184-1.413-3.24-3.887-4.57-5.496-4.477-5.42-15.192-16.714-17.584-18.536-2.468-1.88-3.02-3.2-1.767-4.24.195-.16.425-.257.69-.288zm-298.71 2.588c.035.002.054.014.054.034 0 1.627-6.662 10.537-10.246 13.704-2.783 2.458-4.034 4.613-8.404 14.476-2.31 5.215-5.643 8.813-10.928 11.798-1.296.733-2.8 2.072-3.696 3.293-.947 1.29-1.927 2.146-2.625 2.292-.612.127-1.448.3-1.858.38-.452.09-1.03-.284-1.464-.948-1.81-2.764-.662-15.56 1.878-20.914.38-.8.65-2.253.6-3.23-.052-.974.217-2.55.597-3.497.643-1.606 2.695-3.812 3.546-3.812.204 0 1.398-.47 2.65-1.043 1.255-.573 3.54-1.22 5.078-1.438 1.948-.276 3.3-.754 4.448-1.572 2.265-1.613 3.765-2.473 4.973-2.85.56-.175 3.092-1.317 5.622-2.537 4.664-2.25 9.22-4.17 9.772-4.136zM578.13 993.236c.753.018 1.587.12 2.775.292 4.15.6 8.557 2.16 10.536 3.73 4.71 3.74 6.715 6.252 8.03 10.067.81 2.356.613 3.482-.7 3.986-1.465.563-1.854.17-3.087-3.125-1.168-3.122-3.207-5.398-6.84-7.63-4.156-2.558-5.676-2.988-10.384-2.94-3.718.038-4.26.155-7.154 1.547-3.83 1.843-5.477 3.49-7.63 7.637-.912 1.755-1.903 3.286-2.203 3.4-.3.116-1.084-.014-1.742-.286-1.074-.445-1.164-.63-.89-1.825.394-1.723 3.24-7.06 4.718-8.854 1.67-2.026 6.036-4.3 10.22-5.323 2.07-.505 3.098-.708 4.352-.677zm74.19 33.446c.03.01.05.014.058.03.738 1.193-2.76 10.543-4.74 12.67-.427.46-1.116 1.73-1.53 2.823-.414 1.093-.925 1.987-1.136 1.987-.21 0-.384.242-.384.538 0 .295-1.518 2.318-3.372 4.495-1.855 2.177-4.002 4.575-4.772 5.33l-1.4 1.37-.64-1.277c-.95-1.905-2.028-5.872-1.774-6.533.122-.318.59-.578 1.038-.578.697 0 .86-.402 1.11-2.75.163-1.515.185-3.557.05-4.54-.48-3.497-.044-4.49 2.772-6.313 3.882-2.513 13.83-7.393 14.72-7.25z"/>
</svg>
