<svg xmlns="http://www.w3.org/2000/svg" width="1920" height="1080" xmlns:xlink="http://www.w3.org/1999/xlink" viewBox="0 0 1920 1080.0001">
  <g transform="translate(962.74 -90.408)">
    <path id="a" fill="#fc0" d="M-687.7 201l14.5-2.5 2.6-14.5 2.7 14.5 14.5 2.6-14.4 2.8-2.6 14.4-2.6-14.4z"/>
    <use width="100%" height="100%" transform="translate(765.714 350)" xlink:href="#a"/>
    <use width="100%" height="100%" transform="translate(404.847 727.654)" xlink:href="#a"/>
    <use width="100%" height="100%" transform="translate(496.597 499.468)" xlink:href="#a"/>
    <use width="100%" height="100%" xlink:href="#a" transform="translate(866.313 618.666)"/>
    <use width="100%" height="100%" xlink:href="#a" transform="translate(1153.172 557.685)"/>
    <use width="100%" height="100%" transform="translate(1137.92 243.305)" xlink:href="#a"/>
    <use width="100%" height="100%" transform="translate(1525.714 532.857)" xlink:href="#a"/>
    <use width="100%" height="100%" transform="translate(1031.43 10)" xlink:href="#a"/>
    <use width="100%" height="100%" transform="translate(1322.857 284.286)" xlink:href="#a"/>
    <use width="100%" height="100%" xlink:href="#a" transform="translate(111.43 584.286)"/>
    <use width="100%" height="100%" xlink:href="#a" transform="translate(15.714 394.286)"/>
    <use width="100%" height="100%" transform="translate(1522.857 -37.143)" xlink:href="#a"/>
    <use width="100%" height="100%" transform="translate(274.286 231.43)" xlink:href="#a"/>
    <use width="100%" height="100%" xlink:href="#a" transform="translate(574.286 8.57)"/>
    <use width="100%" height="100%" xlink:href="#a" transform="translate(-228.57 74.286)"/>
    <use width="100%" height="100%" xlink:href="#a"/>
    <use id="b" width="100%" height="100%" xlink:href="#a" transform="translate(210.86 208.716) scale(.33547)"/>
    <use width="100%" height="100%" transform="translate(-48.57 148.57)" xlink:href="#b"/>
    <use width="100%" height="100%" transform="translate(182.857 62.857)" xlink:href="#b"/>
    <use width="100%" height="100%" transform="translate(497.143 85.714)" xlink:href="#b"/>
    <use width="100%" height="100%" transform="translate(294.286 -102.857)" xlink:href="#b"/>
    <use width="100%" height="100%" transform="translate(-597.143 117.143)" xlink:href="#b"/>
    <use width="100%" height="100%" transform="translate(-740 291.43)" xlink:href="#b"/>
    <use width="100%" height="100%" transform="translate(-825.714 131.43)" xlink:href="#b"/>
    <use width="100%" height="100%" transform="translate(-525.714 -82.857)" xlink:href="#b"/>
    <use width="100%" height="100%" transform="translate(-825.714 -148.57)" xlink:href="#b"/>
    <use width="100%" height="100%" transform="translate(-437.143 277.143)" xlink:href="#b"/>
    <use width="100%" height="100%" transform="translate(-271.43 74.286)" xlink:href="#b"/>
    <use width="100%" height="100%" transform="translate(-314.286 -88.57)" xlink:href="#b"/>
    <use width="100%" height="100%" transform="translate(77.143 -140)" xlink:href="#b"/>
    <use width="100%" height="100%" transform="translate(-85.714 234.286)" xlink:href="#b"/>
    <use width="100%" height="100%" transform="translate(151.43 371.43)" xlink:href="#b"/>
    <use width="100%" height="100%" xlink:href="#b" transform="translate(240.213 762.808)"/>
    <use width="100%" height="100%" xlink:href="#b" transform="translate(708.924 712.3)"/>
    <use width="100%" height="100%" xlink:href="#b" transform="translate(-117.38 803.214)"/>
    <use width="100%" height="100%" xlink:href="#b" transform="translate(-83.036 780.99)"/>
    <use width="100%" height="100%" xlink:href="#b" transform="translate(541.24 847.66)"/>
    <use width="100%" height="100%" xlink:href="#b" transform="translate(-369.92 813.316)"/>
    <use width="100%" height="100%" xlink:href="#b" transform="translate(-408.305 688.057)"/>
    <use width="100%" height="100%" xlink:href="#b" transform="translate(-662.863 778.97)"/>
    <use width="100%" height="100%" xlink:href="#b" transform="translate(-870.955 770.89)"/>
    <use width="100%" height="100%" transform="translate(-70.914 583)" xlink:href="#b"/>
    <use width="100%" height="100%" transform="translate(334.286 600)" xlink:href="#b"/>
    <use width="100%" height="100%" transform="translate(514.286 442.857)" xlink:href="#b"/>
    <use width="100%" height="100%" transform="translate(734.286 437.143)" xlink:href="#b"/>
    <use width="100%" height="100%" transform="translate(817.143 574.286)" xlink:href="#b"/>
    <use width="100%" height="100%" transform="translate(860 314.286)" xlink:href="#b"/>
    <use width="100%" height="100%" transform="translate(745.714 145.714)" xlink:href="#b"/>
    <use width="100%" height="100%" transform="translate(891.43 34.286)" xlink:href="#b"/>
    <use width="100%" height="100%" transform="translate(785.714 -57.143)" xlink:href="#b"/>
    <use width="100%" height="100%" transform="translate(671.43 40)" xlink:href="#b"/>
    <use width="100%" height="100%" transform="translate(568.57 -102.857)" xlink:href="#b"/>
    <use width="100%" height="100%" transform="translate(708.572 -137.143)" xlink:href="#b"/>
    <use width="100%" height="100%" transform="translate(731.43 -74.286)" xlink:href="#b"/>
    <use width="100%" height="100%" transform="translate(305.714 134.286)" xlink:href="#b"/>
    <use width="100%" height="100%" transform="translate(280 208.57)" xlink:href="#b"/>
    <use width="100%" height="100%" transform="translate(-665.714 448.57)" xlink:href="#b"/>
    <use width="100%" height="100%" transform="translate(-828.572 371.43)" xlink:href="#b"/>
    <use width="100%" height="100%" transform="translate(-834.286 548.57)" xlink:href="#b"/>
    <use width="100%" height="100%" transform="translate(-262.857 591.43)" xlink:href="#b"/>
    <use width="100%" height="100%" transform="translate(-494.286 437.143)" xlink:href="#b"/>
    <use width="100%" height="100%" transform="translate(-425.714 554.286)" xlink:href="#b"/>
    <use width="100%" height="100%" transform="translate(-360 417.143)" xlink:href="#b"/>
    <use width="100%" height="100%" transform="translate(-868.572 437.143)" xlink:href="#b"/>
    <use width="100%" height="100%" transform="translate(-834.286 191.43)" xlink:href="#b"/>
    <use width="100%" height="100%" transform="translate(-745.714 188.57)" xlink:href="#b"/>
    <use width="100%" height="100%" transform="translate(-745.714 188.57)" xlink:href="#b"/>
    <use width="100%" height="100%" transform="translate(-505.714 62.857)" xlink:href="#b"/>
    <use width="100%" height="100%" transform="translate(-345.714 74.286)" xlink:href="#b"/>
    <use width="100%" height="100%" transform="translate(-240 168.57)" xlink:href="#b"/>
    <use width="100%" height="100%" xlink:href="#b" transform="translate(-185.714 145.714)"/>
    <path id="c" fill="#fc0" d="M-215.8 183.8l2-.4.2-1.8.4 1.8 2 .4-2 .3-.4 2-.3-2z"/>
    <use width="100%" height="100%" transform="translate(44.26 101.255)" xlink:href="#c"/>
    <use width="100%" height="100%" transform="translate(142.243 -48.247)" xlink:href="#c"/>
    <use width="100%" height="100%" transform="translate(289.726 43.677)" xlink:href="#c"/>
    <use width="100%" height="100%" transform="translate(244.27 122.468)" xlink:href="#c"/>
    <use width="100%" height="100%" transform="translate(230.127 64.89)" xlink:href="#c"/>
    <use width="100%" height="100%" transform="translate(389.73 45.697)" xlink:href="#c"/>
    <use width="100%" height="100%" transform="translate(421.045 -38.146)" xlink:href="#c"/>
    <use width="100%" height="100%" transform="translate(525.09 51.758)" xlink:href="#c"/>
    <use width="100%" height="100%" transform="translate(575.6 -28.044)" xlink:href="#c"/>
    <use width="100%" height="100%" transform="translate(630.147 144.692)" xlink:href="#c"/>
    <use width="100%" height="100%" transform="translate(483.675 135.6)" xlink:href="#c"/>
    <use width="100%" height="100%" transform="translate(390.74 195.2)" xlink:href="#c"/>
    <use width="100%" height="100%" transform="translate(231.137 208.33)" xlink:href="#c"/>
    <use width="100%" height="100%" transform="translate(-136.56 51.758)" xlink:href="#c"/>
    <use width="100%" height="100%" transform="translate(-165.853 -39.156)" xlink:href="#c"/>
    <use width="100%" height="100%" transform="translate(-209.29 68.93)" xlink:href="#c"/>
    <use width="100%" height="100%" transform="translate(-103.224 202.27)" xlink:href="#c"/>
    <use width="100%" height="100%" transform="translate(-173.934 189.14)" xlink:href="#c"/>
    <use width="100%" height="100%" transform="translate(-121.406 164.895)" xlink:href="#c"/>
    <use width="100%" height="100%" transform="translate(-96.153 298.235)" xlink:href="#c"/>
    <use width="100%" height="100%" transform="translate(-282.02 278.032)" xlink:href="#c"/>
    <use width="100%" height="100%" transform="translate(-415.36 288.134)" xlink:href="#c"/>
    <use width="100%" height="100%" transform="translate(-475.97 136.61)" xlink:href="#c"/>
    <use width="100%" height="100%" transform="translate(-591.127 17.413)" xlink:href="#c"/>
    <use width="100%" height="100%" transform="translate(-663.858 340.66)" xlink:href="#c"/>
    <use width="100%" height="100%" transform="translate(-673.96 197.22)" xlink:href="#c"/>
    <use width="100%" height="100%" transform="translate(158.406 496.225)" xlink:href="#c"/>
    <use width="100%" height="100%" transform="translate(384.68 278.032)" xlink:href="#c"/>
    <use width="100%" height="100%" transform="translate(303.868 209.342)" xlink:href="#c"/>
    <use width="100%" height="100%" transform="translate(637.218 417.433)" xlink:href="#c"/>
    <use width="100%" height="100%" transform="translate(780.66 245.707)" xlink:href="#c"/>
    <use width="100%" height="100%" transform="translate(631.157 -4.81)" xlink:href="#c"/>
    <use width="100%" height="100%" transform="translate(661.462 88.123)" xlink:href="#c"/>
    <use width="100%" height="100%" transform="translate(972.59 320.458)" xlink:href="#c"/>
    <use width="100%" height="100%" transform="translate(792.782 344.702)" xlink:href="#c"/>
    <use width="100%" height="100%" transform="translate(643.28 267.93)" xlink:href="#c"/>
    <use width="100%" height="100%" transform="translate(806.924 496.225)" xlink:href="#c"/>
    <use width="100%" height="100%" transform="translate(495.797 575.017)" xlink:href="#c"/>
    <use width="100%" height="100%" transform="translate(287.705 546.733)" xlink:href="#c"/>
    <use width="100%" height="100%" transform="translate(330.132 680.073)" xlink:href="#c"/>
    <use width="100%" height="100%" transform="translate(550.345 615.423)" xlink:href="#c"/>
    <use width="100%" height="100%" transform="translate(849.35 704.316)" xlink:href="#c"/>
    <use width="100%" height="100%" transform="translate(625.096 785.13)" xlink:href="#c"/>
    <use width="100%" height="100%" xlink:href="#c" transform="translate(-54.707 764.614)"/>
    <use width="100%" height="100%" xlink:href="#c" transform="translate(37.044 536.428)"/>
    <use width="100%" height="100%" transform="translate(406.76 655.626)" xlink:href="#c"/>
    <use width="100%" height="100%" xlink:href="#c" transform="translate(277.604 851.8)"/>
    <use width="100%" height="100%" xlink:href="#c" transform="translate(313.97 777.047)"/>
    <use width="100%" height="100%" xlink:href="#c" transform="translate(360.436 781.088)"/>
    <use width="100%" height="100%" xlink:href="#c" transform="translate(362.457 781.088)"/>
    <use width="100%" height="100%" xlink:href="#c" transform="translate(419.025 902.306)"/>
    <use width="100%" height="100%" xlink:href="#c" transform="translate(681.665 829.575)"/>
    <use width="100%" height="100%" xlink:href="#c" transform="translate(839.25 829.575)"/>
    <use width="100%" height="100%" xlink:href="#c" transform="translate(948.345 888.164)"/>
    <use width="100%" height="100%" xlink:href="#c" transform="translate(956.426 918.47)"/>
    <use width="100%" height="100%" xlink:href="#c" transform="translate(1004.914 918.47)"/>
    <use width="100%" height="100%" xlink:href="#c" transform="translate(1017.035 888.164)"/>
    <use width="100%" height="100%" xlink:href="#c" transform="translate(1023.096 833.616)"/>
    <use width="100%" height="100%" xlink:href="#c" transform="translate(928.142 732.6)"/>
    <use width="100%" height="100%" xlink:href="#c" transform="translate(720.05 845.738)"/>
    <use width="100%" height="100%" xlink:href="#c" transform="translate(481.655 888.164)"/>
    <use width="100%" height="100%" xlink:href="#c" transform="translate(194.77 827.555)"/>
    <use width="100%" height="100%" xlink:href="#c" transform="translate(-118.376 910.388)"/>
    <use width="100%" height="100%" xlink:href="#c" transform="translate(-217.37 827.555)"/>
    <use width="100%" height="100%" xlink:href="#c" transform="translate(-352.73 926.55)"/>
    <use width="100%" height="100%" xlink:href="#c" transform="translate(-500.214 924.53)"/>
    <use width="100%" height="100%" xlink:href="#c" transform="translate(-597.188 752.804)"/>
    <use width="100%" height="100%" xlink:href="#c" transform="translate(-469.91 678.052)"/>
    <use width="100%" height="100%" xlink:href="#c" transform="translate(-678 801.29)"/>
    <use width="100%" height="100%" xlink:href="#c" transform="translate(-352.73 692.195)"/>
    <use width="100%" height="100%" xlink:href="#c" transform="translate(-381.016 645.728)"/>
    <use width="100%" height="100%" xlink:href="#c" transform="translate(-385.056 494.205)"/>
    <use width="100%" height="100%" transform="translate(-510.315 948.773)" xlink:href="#c"/>
    <use width="100%" height="100%" transform="translate(233.157 542.692)" xlink:href="#c"/>
    <use width="100%" height="100%" transform="translate(150.325 534.61)" xlink:href="#c"/>
    <use width="100%" height="100%" transform="translate(142.243 437.636)" xlink:href="#c"/>
    <use width="100%" height="100%" transform="translate(-126.457 661.89)" xlink:href="#c"/>
    <use width="100%" height="100%" transform="translate(-39.584 791.19)" xlink:href="#c"/>
    <use width="100%" height="100%" transform="translate(-114.335 756.844)" xlink:href="#c"/>
    <use width="100%" height="100%" transform="translate(-318.386 742.702)" xlink:href="#c"/>
    <use width="100%" height="100%" transform="translate(-506.275 692.195)" xlink:href="#c"/>
    <use width="100%" height="100%" transform="translate(-627.493 698.255)" xlink:href="#c"/>
    <use width="100%" height="100%" transform="translate(-566.884 607.342)" xlink:href="#c"/>
    <use width="100%" height="100%" transform="translate(-653.757 605.32)" xlink:href="#c"/>
    <use width="100%" height="100%" transform="translate(-692.143 678.052)" xlink:href="#c"/>
    <use width="100%" height="100%" transform="translate(-694.163 439.656)" xlink:href="#c"/>
    <use width="100%" height="100%" transform="translate(-615.37 395.21)" xlink:href="#c"/>
    <use width="100%" height="100%" transform="translate(-35.544 47.717)" xlink:href="#c"/>
    <use width="100%" height="100%" transform="translate(-273.94 211.362)" xlink:href="#c"/>
    <use width="100%" height="100%" xlink:href="#c" transform="translate(-265.858 215.403)"/>
    <use width="100%" height="100%" xlink:href="#a" transform="translate(-25.463 773.316)"/>
  </g>
</svg>
